<svg xmlns="http://www.w3.org/2000/svg" viewBox="0 0 30 20">
  <rect width="30" height="20" fill="#EE1C25"/>
  <g transform="translate(5,3.33)" fill="#FF0">
    <polygon points="0,-3 0.87,0.97 3.04,0.97 1.09,2.03 1.76,5.07 0,3.33 -1.76,5.07 -1.09,2.03 -3.04,0.97 -0.87,0.97" transform="scale(1.5)"/>
  </g>
  <g fill="#FF0">
    <polygon points="0,-1 0.29,0.32 1.01,0.32 0.36,0.68 0.59,1.69 0,1.11 -0.59,1.69 -0.36,0.68 -1.01,0.32 -0.29,0.32" transform="translate(12,2)"/>
    <polygon points="0,-1 0.29,0.32 1.01,0.32 0.36,0.68 0.59,1.69 0,1.11 -0.59,1.69 -0.36,0.68 -1.01,0.32 -0.29,0.32" transform="translate(14,4.5)"/>
    <polygon points="0,-1 0.29,0.32 1.01,0.32 0.36,0.68 0.59,1.69 0,1.11 -0.59,1.69 -0.36,0.68 -1.01,0.32 -0.29,0.32" transform="translate(14,7.5)"/>
    <polygon points="0,-1 0.29,0.32 1.01,0.32 0.36,0.68 0.59,1.69 0,1.11 -0.59,1.69 -0.36,0.68 -1.01,0.32 -0.29,0.32" transform="translate(12,9.5)"/>
  </g>
</svg>
